<?xml version="1.0" encoding="utf-8"?>
<!-- Generator: Adobe Illustrator 16.0.0, SVG Export Plug-In . SVG Version: 6.00 Build 0)  -->
<!DOCTYPE svg PUBLIC "-//W3C//DTD SVG 1.1//EN" "http://www.w3.org/Graphics/SVG/1.1/DTD/svg11.dtd">
<svg version="1.1" xmlns="http://www.w3.org/2000/svg" xmlns:xlink="http://www.w3.org/1999/xlink" x="0px" y="0px"
	 width="545.745px" height="316.521px" viewBox="0 0 545.745 316.521" enable-background="new 0 0 545.745 316.521"
	 xml:space="preserve">
<g id="Layer_1">
	<rect x="13.08" y="22.644" fill="none" width="580.471" height="274.487"/>
	<text transform="matrix(1 0 0 1 13.0801 116.0034)"><tspan x="0" y="0" font-family="'ComicSansMS'" font-size="120">Parafuso</tspan><tspan x="0" y="144" font-family="'ComicSansMS'" font-size="120">		</tspan><tspan x="72" y="144" font-family="'ComicSansMS'" font-size="120">Frox</tspan></text>
</g>
<g id="Layer_2">
	<circle fill="#EFDCA8" stroke="#020202" stroke-miterlimit="10" cx="450.217" cy="232.898" r="64.95"/>
	<path fill="#CEBB89" d="M459.346,218.563c0,0,8.839-16.376,23.024-3.747c0,0,2.594,0.897,2.421,2.092c0,0-10.055-5.97-17.474-2.61
		c0,0-4.832,3.114-3.021,3.805c0,0,7.173-6.34,15.131-0.144c0,0,6.229,6.28,2.942,6.373c0,0-2.999,0-4.825,1.209
		c0,0,2.922,2.596,1.364,2.941C478.909,228.482,460.966,227.14,459.346,218.563z"/>
	<path fill="#FFFFFF" d="M462.502,223.055c0,0,11.077-12.577,19.002,0C481.504,223.055,476.733,220.843,462.502,223.055z"/>
	<path fill="#E4C38D" d="M452.485,211.534c0,0,2.268,2.284,2.959,4.188c0,0,1.139,0.842,2.082,0.782
		c0.423-0.027,0.808-0.234,1.032-0.782c0.727-1.766,3.943-4.929,3.943-4.929s-3.153-0.463-1.646-3.736c0,0-2.856-1.491-2.298,3.089
		c0,0,0.614,2.655-1.248,1.521C457.311,211.666,450.044,210.459,452.485,211.534z"/>
	<path d="M459.037,218.049c0,0,8.313-14.601,13.034-14.698c0,0,4.999-1.289,11.033,4.203c0,0,2.419,0.969,1.21-0.362
		c0,0-2.917-5.581-6.491-6.804c0,0-6.678-3.856-13.968,4.756c0,0-5.022,6.731-6.22,10.718
		C457.636,215.863,457.636,217.461,459.037,218.049z"/>
	<path d="M444.009,261.058c0,0,2.502-9.755,9.923-8.062c0,0,3.257-1.806,7.034,1.869c0,0,0.821,2.666,2.231,6.192
		c0,0,0.461,7.924-8.211,9.324C454.986,270.382,451.984,274.068,444.009,261.058z"/>
	<path fill="#D3C175" d="M444.009,261.058c0,0-0.939-1.646,2.07-8.982c0,0,2.68-3.762,6.301-1.74c0,0,2.024,0.527,3.221-0.149
		c0,0,2.475-1.449,5.365,1.044c0,0,2.923,3.804,2.231,9.828c0,0-2.231-7.316-5.095-7.953l-7.766-0.108
		C450.337,252.997,448.654,252.553,444.009,261.058z"/>
	<path fill="#A99C60" d="M444.009,261.058c0,0,8.043,16.073,19.188,0c0,0,0.262,13.404-6.369,14.108h-7.102
		C449.727,275.167,443.831,274.603,444.009,261.058z"/>
	<path fill="#A09150" d="M467.301,241.284c0,0,8.029,7.029,13.108,10.792c0,0-6.472-5.738-13.782-14.599
		C466.627,237.477,466.779,239.209,467.301,241.284z"/>
	<path fill="#A09150" d="M437.74,242.912c0,0-4.593,5.485-10.099,13.25C427.642,256.162,436.825,246.703,437.74,242.912z"/>
	<path fill="#B6A355" d="M455.559,239.509c0,0,6.796-5.499,5.297-7.997c0,0,1.331,3.198,0.216,5.096c0,0-0.916,0.702,1.283,1.001
		c0,0,3.824,0.425,3.709,3.022c0,0,1.021-1.411,0.563-3.154c-0.577-2.192,3.454,3.729-0.561,5.13c0,0-1.913,0.899-5.411,0.899
		c0,0-4.497-0.501-5.097,1.799c0,0-2.8,3.498-4.699,0C450.859,245.305,447.916,235.683,455.559,239.509z"/>
	<path fill="#BCAE73" d="M441.973,234.901c0,0-5.063,7.642,2.399,8.853h2.359C446.731,243.753,439.379,241.619,441.973,234.901z"/>
	<path fill="#0B0C0B" d="M457.636,242.267c0,0,4.159-4.79,5.923-2.143c0,0,2.144,1.889-0.881,2.143c0,0-5.042,1.008-5.042,0.505"/>
	<path fill="#0B0C0B" d="M451.984,242.267c0,0-4.16-4.79-5.925-2.143c0,0-2.143,1.889,0.883,2.143c0,0,5.042,1.008,5.042,0.505"/>
	<radialGradient id="SVGID_1_" cx="474.0283" cy="219.6792" r="2.9865" gradientUnits="userSpaceOnUse">
		<stop  offset="0" style="stop-color:#FFFFFF"/>
		<stop  offset="0.0343" style="stop-color:#D6D6D6"/>
		<stop  offset="0.0793" style="stop-color:#A7A7A7"/>
		<stop  offset="0.1258" style="stop-color:#7E7E7F"/>
		<stop  offset="0.1731" style="stop-color:#5D5D5E"/>
		<stop  offset="0.2215" style="stop-color:#444444"/>
		<stop  offset="0.2714" style="stop-color:#313132"/>
		<stop  offset="0.3237" style="stop-color:#272728"/>
		<stop  offset="0.3827" style="stop-color:#232324"/>
		<stop  offset="0.4898" style="stop-color:#1B1B1C"/>
		<stop  offset="0.6599" style="stop-color:#040405"/>
		<stop  offset="0.6888" style="stop-color:#000000"/>
	</radialGradient>
	<path fill="url(#SVGID_1_)" d="M471.146,217.671c0,0-2.646,3.353,2.245,4.221c0,0,4.235,0.019,4.235-3.023
		C477.626,218.868,475.413,216.827,471.146,217.671z"/>
	<path fill="#E5C48E" d="M504.805,212.042c0,0-13.794-4.445-8.276,9.35c0,0,0.767,1.408,2.76,2.16c0,0-4.292-10.897,3.218-10.284
		c0,0,3.985-0.333,5.365,1.673C507.871,214.941,506.951,212.501,504.805,212.042z"/>
	<path fill="#E4C38D" d="M502.906,215.478c0,0,5.716,3.267,3.416,3.966C506.322,219.444,498.353,219.444,502.906,215.478z"/>
	<path fill="#E4C38D" d="M411.755,189.131c0,0,3.065-0.387,3.218,1.299c0,0-1.992,0-1.609,0.92c0,0-0.843,1.992,0.689,1.992
		c0,0-3.064,0.767-3.525-1.226C410.527,192.116,411.755,189.978,411.755,189.131z"/>
	<path fill="#E4C38D" d="M397.147,228.998c0,0-0.832,4.838-2.263,3.53c0,0-3.883-2.223-1.635,3.444c0,0,1.84,0.203,0.409,5.081
		c0,0,2.277,2.018,3.488,1.098c1.211-0.918,0.189,1.533,2.029,1.227c1.839-0.307,2.982-0.254,1.389-2.324c0,0-3.106-5.876,0-6.834
		c0,0,3.414-0.8,2.034,1.983c0,0-2.056,4.877,0.633,4.852l6.063-7.677L397.147,228.998z"/>
	<path fill="#E4C38D" d="M446.257,178.99c0,0,4.588,1.906-1.954,6.954c-6.543,5.048,10.128-3.944,7.515-5.783
		C451.817,180.161,444.76,176.234,446.257,178.99z"/>
	<path fill="#E4C38D" d="M479.33,271.996c0,0,2.188,2.658,7.911,0c5.722-2.656,0.408-1.021-2.248,3.475c0,0-2.85,2.156-4.592,2.918
		c0,0-4.854,2.715,4.16,0c0,0,1.449-0.875,5.232-5.574c0,0,5.743-7.238-3.412-2.291c0,0-7.712,1.813-5.98-1.729
		C480.401,268.794,478.57,269.544,479.33,271.996z"/>
	<path fill="#E4C38D" d="M461.045,283.628c0,0-1.65,5.314-6.146,4.293c0,0-3.082,0.613-6.957-1.021c0,0-2.648-0.762-4.794,1.152
		c0,0,2.489-0.639,6.252,2.32c0,0,0.966,3.789,5.484,2.596c4.52-1.193,0,0,0,0s10.026-3.617,12.685-6.887c0,0,4.7-5.006,6.335-6.387
		c0,0-4.85,2.912-5.184,1.688c0,0-1.97-2.658-1.151-3.475c0,0-0.954,4.699-3.134,4.496
		C464.436,282.404,460.447,281.382,461.045,283.628z"/>
	<path fill="#82827E" d="M396.136,186.628c0,0,36.368,20.592,41.347,23.544c0,0,9.141,22.902-14.098,30.649l-54.177-19.521
		c0,0,14.202,0.923,19.183-26.927c0,0,1.291-9.037-1.661-12.541L396.136,186.628z"/>
	<path fill="#AEADA5" d="M404.35,195.186"/>
	<path fill="#AEADA5" d="M404.35,195.186"/>
	<path fill="#AEADA5" d="M397.739,187.555c0,0,9.88,23.595-7.296,41.397c-17.178,17.8,0,0,0,0l3.206,1.156
		c0,0,16.967-13.997,8.159-40.265L397.739,187.555z"/>
	<path fill="#AEADA5" d="M406.187,192.325c0,0,10.248,20.92-7.463,39.612l3.202,1.152c0,0,18.371-15.395,8.597-38.305
		L406.187,192.325z"/>
	<path fill="#AEADA5" d="M415.015,197.335c0,0,9.583,19.152-8.96,37.243l3.278,1.18c0,0,16.854-11.292,10.127-35.898
		L415.015,197.335z"/>
	<path fill="#AEADA5" d="M424.123,202.512c0,0,6.021,19.884-9.889,35.012l3.3,1.189c0,0,16.088-13.188,10.125-34.186
		L424.123,202.512z"/>
	<path fill="#AEADA5" d="M431.455,206.696c0,0,5.893,19.314-10.411,33.282l3.018,0.608c0,0,17.015-11.803,10.282-32.234
		L431.455,206.696z"/>
	<path fill="#AEADA5" d="M397.347,204.606c0,0,0.594,10.304-8.483,20.661l-2.691-0.969c0,0,2.495-2.717,3.603-4.625
		c1.105-1.908,0,0,0,0S395.523,214.582,397.347,204.606"/>
	<path fill="#4F4F4B" d="M400.648,169.683c0,0,4.55,8.646,1.942,23.293c-4.345,24.409-13.957,43.026-36.352,47.629l-10.124-2.761
		c0,0,29.681-1.014,38.04-47.551c0,0,3.374-18.714-1.84-25.769C389.861,161.206,400.648,169.683,400.648,169.683z"/>
	<path fill="#9A9998" d="M392.259,163.452c0,0-19.578-3.944-31.894,20.373c0,0-8.843,10.421-9.158,38.21c0,0,0,11.515,5.685,16.422
		c0,0,22.104,2.21,34.881-31.494C391.772,206.963,404.892,170.237,392.259,163.452z"/>
	<path fill="#E4C38D" d="M420.803,183.469c0,0,1.507,1.073,3.04,0c0,0,1.226-1.533,1.991-1.686
		C425.834,181.783,421.596,180.558,420.803,183.469z"/>
	<path fill="#E4C38D" d="M403.324,249.097c0,0-10.729-2.506-6.744,0.992c0,0-2.759,3.643,1.073,5.482c0,0,2.646,2.145,4.485,0
		c0,0,6.418,1.609,5.783,0C407.922,255.572,411.371,248.185,403.324,249.097z"/>
	<path fill="#E4C38D" d="M413.134,254.361c0,0-3.558,0.904-3.388,1.824c0.169,0.918,2.774,1.684,5.533,0
		c0,0,2.299-1.439,3.679-0.414c0,0,1.532,1.588,2.299,1.23c0,0-2.759-4.648-1.686-6.184c0,0-1.227-5.824-2.452-2.605
		c0,0,1.839,2.482-0.461,4C416.658,252.212,412.98,253.306,413.134,254.361z"/>
	<path fill="#E4C38D" d="M489.616,226.398c0,0,1.839-1.588,2.758,1.914c0,0-0.152,1.348,0.921,1.735c0,0,0,0.695-4.599,1.001
		c0,0-5.978-4.238-1.992-3.651C486.704,227.396,489.155,228.798,489.616,226.398z"/>
	<path fill="#E4C38D" d="M500.038,236.491c0,0-3.372,2.22-1.533,4.06c0,0-0.178,0-0.548,1.225c0,0-2.364,4.447,2.081,6.898h1.463
		c0,0-4.528-2.896-0.543-3.67c0,0,0.475-2.994,3.227-2.422c0,0,7.502,1.342,3.518-2.031c0,0-1.978-0.152-3.518-1.84
		C504.185,238.71,502.337,236.11,500.038,236.491z"/>
	<path fill="#E4C38D" d="M505.862,234.726c0,0,3.832-4.597,5.059-3.678c0,0-3.525,4.832-2.529,5.405c0,0,0.689,1.951-0.689,1.185
		C507.702,237.638,504.669,235.365,505.862,234.726z"/>
	<path fill="#E4C38D" d="M470.269,192.27c0,0,0.494-0.886,2.641-0.979c0,0,1.687-1.473,0-1.473c0,0-3.797,0-3.219,1.226
		C469.69,191.043,467.627,193.249,470.269,192.27z"/>
	<path fill="#E4C38D" d="M440.364,175.87c0,0-0.868,3.678,0.665,2.605c0,0,3.984-3.942,3.524-1.205c0,0-1.942,3.81-4.189,4.117
		c0,0-4.087,1.686-4.239,0C436.125,181.387,439.239,175.41,440.364,175.87z"/>
	<path fill="#E4C38D" d="M423.863,248.642c0,0-1.227,1.635,0,1.447c0,0,1.991-0.496,1.532-1.416
		C425.396,248.673,425.396,247.382,423.863,248.642z"/>
	<path fill="#E4C38D" d="M433.504,279.578c0,0,6.94-0.152,0,3.219c0,0-5.866,3.066-8.626,0c0,0-1.839-0.766-1.532,0.459
		c0,0-0.835,1.381-0.034,1.688c0,0-3.644-1.994-2.418-2.682c1.226-0.689,4.258-0.844,5.194-3.295c0,0,1.974-3.832,2.068-2.529
		c0,0,0.4,3.6,1.626,3.447c0,0,2.606-4.023,1.687,0.672C431.469,280.556,431.556,280.804,433.504,279.578z"/>
	<polygon fill="#545251" points="361.199,182.245 368.079,199.19 351.207,222.035 352.088,229.191 371.147,205.717 381.054,225.707 
		385.365,220.043 376.329,200.851 397.75,176.182 396.788,169.594 372.987,193.975 364.927,176.424 	"/>
	<path fill="#CEB76F" d="M417.899,240.822c0,0-4.796-3.291,6.823-2.552c0,0,4.427-0.921,4.797-4.242c0,0-4.243-3.137-1.292-4.427
		l4.426-1.106c0,0-1.106-6.806,0-6.806c0,0,7.01,1.274,4.242-2.232c0,0-4.609-3.558-0.921-5.099c0,0,0.171-1.012-1.477-3.938
		c0,0-6.188-4.695-3.136-4.638c3.463,0.065,3.561-0.5,5.164,0c2.729,0.851,18.88,14.642-5.071,35.087c0,0-2.458,1.273-8.022,1.273
		C423.433,242.143,423.616,241.528,417.899,240.822z"/>
	<path fill="#D3C27C" stroke="#7BC360" stroke-width="2" stroke-miterlimit="10" d="M487.623,256.185"/>
</g>
</svg>
