<?xml version="1.0" encoding="utf-8"?>
<!-- Generator: Adobe Illustrator 16.0.3, SVG Export Plug-In . SVG Version: 6.00 Build 0)  -->
<!DOCTYPE svg PUBLIC "-//W3C//DTD SVG 1.1//EN" "http://www.w3.org/Graphics/SVG/1.1/DTD/svg11.dtd">
<svg version="1.1" id="Layer_1" xmlns="http://www.w3.org/2000/svg" xmlns:xlink="http://www.w3.org/1999/xlink" x="0px" y="0px"
	 width="167px" height="130px" viewBox="0 0 167 130" enable-background="new 0 0 167 130" xml:space="preserve">
<g id="Layer_1_1_" display="none">
	
		<image display="inline" overflow="visible" enable-background="new    " width="846" height="384" xlink:href="750465CF.jpeg"  transform="matrix(0.9847 0 0 0.9868 -273.999 -106.9556)">
	</image>
</g>
<g id="Layer_2">
	<path fill="#FEE813" stroke="#000000" stroke-miterlimit="10" d="M80.359,7.312c0,0,6.761,41.333,30.655,32c0,0,22.391-9,28.325-14
		c0,0-52.22,43,22.614,27.667c0,0-73.178,16.667-22.614,39.667c0,0-33.284-6.668-34.638,6c0,0,0.001,21.332,1.804,26
		c0,0-14.616-36.063-33.099-24.063c0,0-6.122,7.395-7.474,11.395c0,0,3.605-33-38.77-10.666c0,0,46.884-33-14.876-28.668
		c0,0,56.802-7,3.607-44C15.895,28.645,75.851,71.979,80.359,7.312z"/>
	<path stroke="#000000" stroke-miterlimit="10" d="M99.055,102.479c-5.142-5.645-11.645-10.267-19.152-10.267
		c-3.712,0-7.327,1.125-10.746,3.345l-1.015,0.659l-0.098,0.151c-0.526-0.821-1.126-1.62-1.81-2.383
		c-2.495-2.781-7.113-6.099-14.945-6.099c-1.125,0-2.287,0.066-3.485,0.198c1.842-3.537,2.668-7.241,1.542-10.794
		c-1.543-4.872-5.844-7.558-11.021-9.019c2.609-2.359,4.628-5.249,5.51-8.778c0.986-3.948,0.461-8.051-1.599-12.345
		c3.602,0.855,7.304,1.378,10.973,1.379c0.002,0,0.005,0,0.006,0c10.103,0,21.907-3.872,28.327-19.519
		c4.51,8.929,11.687,17.346,22.717,17.346c2.859,0,5.826-0.592,8.817-1.761c0.557-0.224,2.105-0.851,4.238-1.75
		c-1.412,3.5-1.846,6.977-0.684,10.177c1.648,4.542,5.617,6.775,9.645,7.872c-6.412,4.307-9.821,8.983-10.346,14.131
		c-0.396,3.896,0.932,7.317,3.123,10.262c-15.383,0.705-19.398,7.232-19.988,12.758l-0.031,0.3v0.302
		C99.033,99.712,99.039,101.018,99.055,102.479z"/>
	<rect x="49.944" y="56.687" fill="none" width="69.421" height="18.979"/>
	<text transform="matrix(1 0 0 1 49.9443 72.2471)" fill="#FFFFFF" font-family="'ComicSansMS-Bold'" font-size="20">BANG!</text>
</g>
</svg>
